<svg id="visual" viewBox="0 0 900 450" width="900" height="450" xmlns="http://www.w3.org/2000/svg" xmlns:xlink="http://www.w3.org/1999/xlink" version="1.1"><rect x="0" y="0" width="900" height="450" fill="#F5eee8"></rect><defs><linearGradient id="grad1_0" x1="50%" y1="0%" x2="100%" y2="100%"><stop offset="10%" stop-color="#c62368" stop-opacity="1"></stop><stop offset="90%" stop-color="#c62368" stop-opacity="1"></stop></linearGradient></defs><defs><linearGradient id="grad1_1" x1="50%" y1="0%" x2="100%" y2="100%"><stop offset="10%" stop-color="#c62368" stop-opacity="1"></stop><stop offset="90%" stop-color="#de7574" stop-opacity="1"></stop></linearGradient></defs><defs><linearGradient id="grad1_2" x1="50%" y1="0%" x2="100%" y2="100%"><stop offset="10%" stop-color="#eab5a0" stop-opacity="1"></stop><stop offset="90%" stop-color="#de7574" stop-opacity="1"></stop></linearGradient></defs><defs><linearGradient id="grad1_3" x1="50%" y1="0%" x2="100%" y2="100%"><stop offset="10%" stop-color="#eab5a0" stop-opacity="1"></stop><stop offset="90%" stop-color="#f5eee8" stop-opacity="1"></stop></linearGradient></defs><defs><linearGradient id="grad2_0" x1="0%" y1="0%" x2="50%" y2="100%"><stop offset="10%" stop-color="#c62368" stop-opacity="1"></stop><stop offset="90%" stop-color="#c62368" stop-opacity="1"></stop></linearGradient></defs><defs><linearGradient id="grad2_1" x1="0%" y1="0%" x2="50%" y2="100%"><stop offset="10%" stop-color="#de7574" stop-opacity="1"></stop><stop offset="90%" stop-color="#c62368" stop-opacity="1"></stop></linearGradient></defs><defs><linearGradient id="grad2_2" x1="0%" y1="0%" x2="50%" y2="100%"><stop offset="10%" stop-color="#de7574" stop-opacity="1"></stop><stop offset="90%" stop-color="#eab5a0" stop-opacity="1"></stop></linearGradient></defs><defs><linearGradient id="grad2_3" x1="0%" y1="0%" x2="50%" y2="100%"><stop offset="10%" stop-color="#f5eee8" stop-opacity="1"></stop><stop offset="90%" stop-color="#eab5a0" stop-opacity="1"></stop></linearGradient></defs><g transform="translate(900, 0)"><path d="M0 405C-59.2 405.2 -118.3 405.3 -155 374.2C-191.6 343 -205.8 280.5 -241.8 241.8C-277.9 203.1 -335.9 188.3 -366.8 151.9C-397.6 115.6 -401.3 57.8 -405 0L0 0Z" fill="#efd2c1"></path><path d="M0 303.8C-44.4 303.9 -88.8 304 -116.2 280.6C-143.7 257.3 -154.3 210.4 -181.4 181.4C-208.4 152.4 -251.9 141.2 -275.1 113.9C-298.2 86.7 -301 43.3 -303.7 0L0 0Z" fill="#e59686"></path><path d="M0 202.5C-29.6 202.6 -59.2 202.7 -77.5 187.1C-95.8 171.5 -102.9 140.3 -120.9 120.9C-139 101.6 -168 94.1 -183.4 76C-198.8 57.8 -200.7 28.9 -202.5 0L0 0Z" fill="#d4516b"></path><path d="M0 101.3C-14.8 101.3 -29.6 101.3 -38.7 93.5C-47.9 85.8 -51.4 70.1 -60.5 60.5C-69.5 50.8 -84 47.1 -91.7 38C-99.4 28.9 -100.3 14.4 -101.2 0L0 0Z" fill="#c62368"></path></g><g transform="translate(0, 450)"><path d="M0 -405C34.8 -359.8 69.7 -314.6 125.5 -303C181.4 -291.5 258.2 -313.6 286.4 -286.4C314.6 -259.2 294.1 -182.6 305.8 -126.7C317.5 -70.7 361.2 -35.4 405 0L0 0Z" fill="#efd2c1"></path><path d="M0 -303.7C26.1 -269.8 52.3 -235.9 94.1 -227.3C136 -218.6 193.6 -235.2 214.8 -214.8C235.9 -194.4 220.6 -137 229.4 -95C238.1 -53 270.9 -26.5 303.8 0L0 0Z" fill="#e59686"></path><path d="M0 -202.5C17.4 -179.9 34.8 -157.3 62.8 -151.5C90.7 -145.7 129.1 -156.8 143.2 -143.2C157.3 -129.6 147.1 -91.3 152.9 -63.3C158.7 -35.4 180.6 -17.7 202.5 0L0 0Z" fill="#d4516b"></path><path d="M0 -101.2C8.7 -89.9 17.4 -78.6 31.4 -75.8C45.3 -72.9 64.5 -78.4 71.6 -71.6C78.6 -64.8 73.5 -45.7 76.5 -31.7C79.4 -17.7 90.3 -8.8 101.3 0L0 0Z" fill="#c62368"></path></g></svg>